<?xml version="1.0" encoding="UTF-8" standalone="no"?>
<svg
   xmlns:dc="http://purl.org/dc/elements/1.1/"
   xmlns:cc="http://creativecommons.org/ns#"
   xmlns:rdf="http://www.w3.org/1999/02/22-rdf-syntax-ns#"
   xmlns:svg="http://www.w3.org/2000/svg"
   xmlns="http://www.w3.org/2000/svg"
   xmlns:sodipodi="http://sodipodi.sourceforge.net/DTD/sodipodi-0.dtd"
   xmlns:inkscape="http://www.inkscape.org/namespaces/inkscape"
   height="512"
   viewBox="0 0 192 192"
   width="512"
   version="1.1"
   id="svg10"
   sodipodi:docname="bar-graph2.svg"
   inkscape:version="0.92.4 (5da689c313, 2019-01-14)">
  <metadata
     id="metadata16">
    <rdf:RDF>
      <cc:Work
         rdf:about="">
        <dc:format>image/svg+xml</dc:format>
        <dc:type
           rdf:resource="http://purl.org/dc/dcmitype/StillImage" />
        <dc:title></dc:title>
      </cc:Work>
    </rdf:RDF>
  </metadata>
  <defs
     id="defs14" />
  <sodipodi:namedview
     pagecolor="#ffffff"
     bordercolor="#666666"
     borderopacity="1"
     objecttolerance="10"
     gridtolerance="10"
     guidetolerance="10"
     inkscape:pageopacity="0"
     inkscape:pageshadow="2"
     inkscape:window-width="1920"
     inkscape:window-height="1057"
     id="namedview12"
     showgrid="false"
     inkscape:zoom="0.4609375"
     inkscape:cx="256"
     inkscape:cy="256"
     inkscape:window-x="2552"
     inkscape:window-y="-8"
     inkscape:window-maximized="1"
     inkscape:current-layer="svg10" />
  <path
     d="M 16,171.88938 V 0.94915254 H 0 V 181.94469 A 8,10.055308 0 0 0 8,192 h 184 v -20.11062 z"
     id="path2"
     inkscape:connector-curvature="0"
     style="stroke-width:1.12112153" />
  <path
     d="m 191.70763,119.08051 a 8,8 0 0 0 -8,-8 h -24 a 8,8 0 0 0 -8,8 v 56 h 40 z"
     id="path4"
     inkscape:connector-curvature="0" />
  <path
     d="m 74.305085,84.512712 a 8,8 0 0 0 -8,-8 h -24 a 8,8 0 0 0 -8,8 v 87.999998 h 40 z"
     id="path6"
     inkscape:connector-curvature="0" />
  <path
     d="m 133.4322,52.639831 a 8,8 0 0 0 -8,-8 h -24 a 8,8 0 0 0 -8,8 V 172.63983 h 40 z"
     id="path8"
     inkscape:connector-curvature="0" />
</svg>
